<svg width="945" height="588" viewBox="0 0 945 588" fill="none" xmlns="http://www.w3.org/2000/svg">
<path d="M488.37 539.077C503.22 538.997 527.29 539.377 541.87 539.917C556.45 540.467 579.17 541.598 592.37 542.438C605.57 543.278 623.57 544.648 632.37 545.478C641.17 546.298 656.7 547.887 666.87 548.997C677.04 550.107 694.82 552.347 706.37 553.987C717.92 555.617 736.37 558.508 747.37 560.398C758.37 562.287 769.73 564.308 772.62 564.878C775.51 565.448 778.54 566.587 779.37 567.417C780.2 568.247 780.87 570.497 780.87 572.417C780.87 574.587 780.11 576.677 778.87 577.917C777.771 579.017 776.531 579.918 776.12 579.928C775.707 579.927 770.418 579.017 764.37 577.898C758.32 576.777 746.17 574.768 737.37 573.428C728.57 572.088 712.6 570.088 701.87 568.978C691.141 567.878 675.85 566.508 667.87 565.938C659.89 565.368 644.82 564.447 634.37 563.907C623.92 563.357 597.6 562.627 575.87 562.287C552.421 561.907 521.95 562.128 500.87 562.818C481.351 563.448 457.94 564.418 448.87 564.948C439.8 565.488 423.37 566.618 412.37 567.448C401.37 568.288 382.24 570.107 369.87 571.487C357.5 572.867 336.8 575.567 323.87 577.487C310.941 579.407 292.27 582.497 282.37 584.357C265.371 587.537 264.24 587.638 261.951 586.068C259.751 584.569 259.581 583.917 260.071 578.917C260.371 575.887 261.511 571.617 262.601 569.417C263.701 567.217 265.901 564.267 267.481 562.867C269.851 560.787 273.341 559.749 286.87 557.099C295.94 555.329 314.171 552.317 327.37 550.417C340.57 548.527 359.92 546.087 370.37 544.997C380.82 543.917 396.57 542.517 405.37 541.907C414.17 541.287 430.371 540.428 441.37 540.008C452.37 539.578 473.521 539.157 488.37 539.077ZM123.87 315.018C129.65 314.598 135.27 314.368 136.37 314.508C137.471 314.658 146.811 314.798 157.12 314.848C175.61 314.918 175.881 314.947 176.751 317.167C177.291 318.567 177.07 323.787 176.16 330.917C175.351 337.247 170.93 364.917 166.33 392.417C161.73 419.917 158.061 442.487 158.171 442.577C158.288 442.656 165.095 431.86 173.301 418.577C181.521 405.287 197.041 380.547 207.801 363.607C218.571 346.658 228.94 330.708 230.87 328.148C232.8 325.598 235.94 322.457 237.87 321.167C239.8 319.887 242.94 318.367 244.87 317.787C246.801 317.207 254.221 316.517 261.37 316.237C270.75 315.877 275.48 316.107 278.37 317.077C281.03 317.97 282.46 319.084 282.66 320.417C282.82 321.517 278.611 332.317 273.311 344.417C268.011 356.517 259.831 375.867 255.141 387.417C250.451 398.967 242.671 418.997 237.861 431.917C233.041 444.837 226.761 462.617 223.921 471.417C221.071 480.217 217.411 492.817 215.801 499.417C213.691 508.047 212.861 513.867 212.87 520.167C212.87 526.417 213.431 530.417 214.841 534.167C215.921 537.057 218.281 540.857 220.091 542.617C221.891 544.367 225.851 546.917 228.87 548.277C231.89 549.627 236.17 551.007 238.37 551.327C240.57 551.647 243.191 552.697 244.191 553.667C245.811 555.217 245.871 555.878 244.791 559.417C243.981 562.057 241.311 565.678 236.961 570.048C231.661 575.378 229.29 576.988 224.87 578.298C221.84 579.198 216.56 579.938 213.12 579.928C209.431 579.918 204.72 579.128 201.62 577.978C198.73 576.917 194.12 574.058 191.37 571.628C188.621 569.188 185.151 564.998 183.671 562.308C182.181 559.618 180.041 553.817 178.901 549.417C177.441 543.707 176.851 538.257 176.851 530.417C176.851 524.367 177.511 515.587 178.311 510.917C179.121 506.247 181.371 497.127 183.321 490.667C185.271 484.207 189.621 471.377 192.991 462.167C196.361 452.957 204.051 432.817 210.091 417.417C216.121 402.017 221.291 388.747 221.561 387.917C221.839 387.089 218.35 392.039 213.811 398.917C209.271 405.787 193.671 429.867 179.131 452.417C164.602 474.966 150.953 495.775 148.791 498.667C146.531 501.697 143.39 504.547 141.37 505.417C139.44 506.247 135.17 506.917 131.87 506.917C126.801 506.917 125.48 506.527 123.37 504.417C121.991 503.037 120.87 501.247 120.87 500.417C120.871 499.584 122.471 490.705 124.41 480.667C126.361 470.627 129.991 450.937 132.471 436.917C134.941 422.887 138.041 404.437 139.361 395.917C140.67 387.391 141.66 380.324 141.551 380.188C141.451 380.058 138.031 387.258 133.951 396.188C129.861 405.118 120.271 425.917 112.631 442.417C104.991 458.917 96.1508 477.367 92.9907 483.417C89.8307 489.467 84.5808 498.467 81.3208 503.417C78.0608 508.367 71.5613 516.278 66.8813 521.008C60.2314 527.708 56.7305 530.377 50.8706 533.167C46.7406 535.127 40.6705 537.278 37.3706 537.938C34.0706 538.597 29.3405 538.858 26.8706 538.518C24.3905 538.178 20.3404 537.227 17.8706 536.417C15.3907 535.597 11.621 533.468 9.47113 531.678C7.33113 529.888 4.46125 526.167 3.09125 523.417C1.6313 520.487 0.391248 515.927 0.091255 512.417C-0.178678 509.117 0.170583 503.937 0.870552 500.917C1.58059 497.887 3.13056 493.167 4.33051 490.417C5.52048 487.667 7.82093 484.388 9.44086 483.138C11.0504 481.878 12.8201 480.858 13.3706 480.867C13.9205 480.877 14.6808 482.578 15.0708 484.648C15.4507 486.717 16.6111 489.537 17.6411 490.917C18.681 492.287 21.5107 494.427 23.9506 495.657C26.5905 496.987 30.1806 497.887 32.8706 497.877C35.3405 497.877 39.4006 496.937 41.8706 495.787C44.3406 494.647 49.0012 491.167 52.2211 488.067C55.4412 484.957 60.4406 478.817 63.3305 474.417C66.2205 470.017 71.6509 460.787 75.4008 453.917C79.151 447.037 90.151 424.997 99.8608 404.917C109.561 384.837 121.641 360.537 126.701 350.917C131.75 341.287 135.771 333.308 135.631 333.167C135.491 333.027 132.9 333.417 129.87 334.027C126.84 334.627 120.77 336.807 116.37 338.867C111.971 340.927 105.67 344.648 102.37 347.138C99.0706 349.628 93.7007 354.538 90.4409 358.048C87.1809 361.548 81.871 368.467 78.6411 373.417C75.4113 378.367 71.8416 384.897 70.7114 387.917C69.5814 390.937 68.4211 396.117 68.1411 399.417C67.7811 403.677 68.1015 406.507 69.2514 409.167C70.1813 411.307 71.9406 413.347 73.3706 413.917C74.7403 414.467 75.8701 415.587 75.8706 416.417C75.8706 417.247 73.7305 420.067 71.1206 422.697C68.2706 425.557 64.7705 427.958 62.3706 428.678C60.1706 429.338 56.6804 429.887 54.6206 429.898C52.5605 429.907 49.1804 429.217 47.1206 428.357C45.0607 427.497 42.5312 426.037 41.5112 425.107C40.4912 424.177 38.5108 421.167 37.1108 418.417C35.071 414.417 34.4712 411.507 34.0913 403.917C33.7613 397.067 34.0907 392.597 35.2807 387.917C36.1808 384.337 38.5307 378.037 40.4907 373.917C42.4507 369.787 46.2311 363.267 48.8911 359.417C51.5512 355.567 57.9214 348.347 63.0512 343.377C68.171 338.407 74.4005 332.947 76.8706 331.237C79.3405 329.537 84.5207 326.547 88.3706 324.607C92.2205 322.658 99.4206 319.878 104.37 318.428C109.8 316.828 117.531 315.478 123.87 315.018ZM399.37 383.768C402.28 382.378 405.071 381.928 409.591 382.138C414.481 382.358 416.291 382.897 418.091 384.697C419.751 386.357 420.371 388.118 420.351 391.197C420.341 393.687 419.321 397.398 417.851 400.268C415.711 404.437 415.581 405.238 416.87 406.008C417.69 406.508 420.621 407.747 423.37 408.777C426.12 409.807 431.411 410.927 435.12 411.277C438.83 411.627 443.11 412.398 444.62 412.978C446.13 413.558 449.061 415.698 451.141 417.728C454.081 420.607 454.901 422.187 454.891 424.917C454.881 427.587 452.241 432.827 443.801 446.917C437.711 457.087 431.191 468.567 429.321 472.417C427.451 476.267 425.381 481.887 424.721 484.917C424.061 487.937 423.821 491.207 424.191 492.167C424.611 493.237 425.951 493.927 427.62 493.947C429.13 493.967 432.171 492.798 434.37 491.348C436.57 489.908 440.111 487.077 442.241 485.067C444.361 483.057 448.211 478.937 450.791 475.917C453.551 472.667 456.221 468.167 457.301 464.917C458.311 461.887 461.151 455.367 463.62 450.417C466.09 445.467 469.961 438.717 472.221 435.417C474.491 432.117 479.041 426.558 482.351 423.058C485.661 419.548 491.52 414.577 495.37 411.997C499.22 409.407 505.07 406.268 508.37 405.018C511.67 403.758 516.85 402.258 519.87 401.688C522.89 401.108 527.85 400.927 530.87 401.277C534 401.637 537.88 402.897 539.87 404.197C541.79 405.467 544.371 408.277 545.601 410.457C546.831 412.637 548.291 417.227 548.851 420.667C549.641 425.507 549.541 428.547 548.381 434.167C547.571 438.157 545.221 444.787 543.171 448.917C541.021 453.237 537.041 458.967 533.771 462.417C530.651 465.717 525.241 470.117 521.741 472.197C518.241 474.277 512.22 476.938 508.37 478.098C502.881 479.758 499.5 480.127 484.061 479.417L483.521 482.917C483.211 484.837 483.281 487.717 483.671 489.317C484.051 490.907 485.831 493.497 487.62 495.067C489.62 496.817 492.501 498.148 495.12 498.518C497.71 498.878 501.911 498.477 505.87 497.478C509.45 496.578 515.741 493.947 519.861 491.627C525.041 488.717 530.621 484.177 537.941 476.917C545.331 469.577 550.801 462.957 556.101 454.917C560.261 448.587 568.551 434.947 574.521 424.598C580.491 414.248 587.39 403.517 589.87 400.747C592.35 397.977 596.62 394.638 599.37 393.308C602.12 391.988 606.62 390.617 609.37 390.277C612.12 389.937 616.51 389.937 619.12 390.287C622 390.667 625.05 391.897 626.87 393.417C628.52 394.787 629.87 396.587 629.87 397.417C629.87 398.247 627.811 401.277 625.301 404.167C622.791 407.057 619.861 411.217 618.811 413.417C617.751 415.617 616.431 420.117 615.861 423.417C615.301 426.717 615.121 431.897 615.461 434.917C615.801 437.937 617.421 446.497 619.051 453.917C620.691 461.337 622.061 470.567 622.101 474.417C622.141 478.267 621.601 483.897 620.891 486.917C620.181 489.937 618.311 495.007 616.731 498.167C615.161 501.327 611.241 506.727 608.021 510.167C604.301 514.147 599.681 517.747 595.271 520.087C591.481 522.097 585.67 524.237 582.37 524.827C578.551 525.517 574.37 525.587 570.87 525.027C567.85 524.547 563.12 523.027 560.37 521.657C557.62 520.287 553.601 517.197 551.431 514.787C549.271 512.387 546.691 508.617 545.711 506.417C544.721 504.217 543.901 501.627 543.891 500.667C543.881 499.318 542.66 499.918 538.62 503.258C535.73 505.648 531.35 508.977 528.87 510.657C526.39 512.337 520.1 515.797 514.87 518.327C509.641 520.857 501.99 523.648 497.87 524.518C493.201 525.508 487.73 525.928 483.37 525.638C479.321 525.368 474.26 524.248 471.37 522.978C468.62 521.778 464.81 519.587 462.91 518.107C461.01 516.627 458.18 513.397 456.62 510.917C455.061 508.437 453.311 504.617 451.681 498.417L443.021 506.957C436.071 513.827 432.6 516.378 425.37 519.938C417.031 524.037 415.79 524.368 408.37 524.388C401.921 524.408 399.841 524.027 397.631 522.417C396.131 521.317 393.901 518.397 392.671 515.917C390.881 512.287 390.461 509.767 390.501 502.917C390.531 498.217 391.331 491.507 392.291 487.917C393.241 484.337 395.931 477.367 398.261 472.417C400.591 467.467 406.891 455.997 412.261 446.917C417.631 437.837 421.82 429.967 421.58 429.417C421.328 428.867 417.81 427.367 413.751 426.087C409.692 424.807 405.921 423.948 405.37 424.178C404.818 424.413 399.459 433.561 393.451 444.508C387.451 455.457 380.042 468.467 377.001 473.417C373.961 478.367 368.771 486.247 365.471 490.917C362.171 495.587 355.621 503.257 350.921 507.947C345.121 513.737 340.12 517.658 335.37 520.148C331.521 522.177 326.12 524.268 323.37 524.798C319.951 525.468 316.79 525.417 313.37 524.657C309.971 523.897 307.33 522.487 305.12 520.228C302.871 517.938 301.221 514.687 297.641 502.417L289.011 510.968C283.731 516.198 278.23 520.588 274.87 522.258C271.71 523.828 266.82 525.257 263.37 525.607C258.321 526.117 256.5 525.828 251.87 523.758C248.851 522.408 245.421 519.977 244.261 518.357C243.101 516.747 241.571 513.617 240.861 511.417C239.981 508.667 239.761 504.127 240.141 496.917C240.511 489.887 241.571 483.447 243.341 477.417C244.801 472.467 247.871 464.147 250.171 458.917C252.471 453.687 257.321 444.917 260.951 439.417C264.591 433.917 271.351 425.587 276.001 420.917C280.641 416.247 287.351 410.718 290.901 408.638C294.461 406.558 299.85 404.138 302.87 403.258C306.57 402.188 310.011 401.878 313.37 402.317C316.12 402.667 320.101 403.968 322.221 405.188C324.341 406.418 327.361 409.217 331.801 415.417L333.58 410.997C334.57 408.577 336.491 405.748 337.87 404.718C339.94 403.168 342.131 402.858 350.62 402.888C356.26 402.898 361.88 403.298 363.12 403.768C364.36 404.228 365.671 405.248 366.041 406.018C366.43 406.82 363.3 414.889 358.711 424.917C354.301 434.537 347.38 450.287 343.33 459.917C339.28 469.537 335.161 480.447 334.171 484.148C332.571 490.127 332.531 491.047 333.87 492.497C334.89 493.597 336.261 493.927 338.12 493.518C339.631 493.188 343.391 490.557 346.481 487.667C349.561 484.777 354.111 479.717 356.591 476.417C359.071 473.117 363.221 466.817 365.811 462.417C368.411 458.017 375.111 445.756 390.87 415.917L388.37 410.917C386.991 408.167 385.87 404.337 385.87 402.417C385.871 400.497 386.351 397.677 386.931 396.167C387.511 394.657 389.651 391.678 391.681 389.548C393.711 387.418 397.17 384.818 399.37 383.768ZM760.771 364.898C770.431 364.888 774.741 365.248 775.641 366.148C776.331 366.847 776.901 367.977 776.891 368.667C776.881 369.357 774.161 374.977 770.851 381.167C767.542 387.355 764.843 392.753 764.851 393.167C764.861 393.577 769.711 394.027 786.37 394.417L786.62 397.667C786.78 399.757 785.8 402.877 783.87 406.417C782.221 409.437 779.971 412.367 778.87 412.917C777.77 413.467 772.369 413.917 756.87 413.917L750.641 426.167C747.211 432.907 742.291 442.917 739.701 448.417C737.121 453.917 733.351 463.367 731.341 469.417C729.321 475.467 727.441 482.437 727.171 484.917C726.771 488.467 727.111 489.997 728.771 492.167C730.441 494.357 731.681 494.917 734.87 494.917C737.07 494.917 740.78 493.957 743.12 492.787C745.46 491.607 749.581 488.797 752.271 486.537C754.971 484.267 760.041 478.817 763.541 474.417C767.381 469.597 772.121 461.847 775.481 454.917C778.541 448.587 783.141 440.268 785.711 436.428C788.271 432.578 793.52 426.277 797.37 422.417C801.22 418.557 807.74 413.287 811.87 410.697C815.99 408.117 822.07 405.027 825.37 403.827C829.72 402.257 833.841 401.628 840.37 401.558C846.22 401.488 850.24 401.928 851.87 402.808C853.24 403.548 855.621 405.347 857.141 406.787C858.671 408.237 860.671 411.667 861.581 414.417C862.491 417.167 863.251 422.337 863.261 425.917C863.271 430.107 862.421 435.077 860.861 439.917C859.531 444.037 856.351 450.567 853.791 454.417C851.231 458.267 846.941 463.377 844.251 465.777C841.571 468.177 837.12 471.448 834.37 473.048C831.62 474.638 826.22 476.907 822.37 478.077C816.951 479.717 813.511 480.108 807.141 479.808C801.182 479.528 798.762 479.767 798.391 480.667C798.101 481.357 797.87 483.937 797.87 486.417C797.87 489.967 798.451 491.527 800.62 493.787C802.13 495.367 805.391 497.227 807.87 497.917C811.46 498.917 813.591 498.927 818.37 497.938C821.67 497.258 826.62 495.717 829.37 494.497C832.12 493.287 836.62 490.777 839.37 488.917C842.12 487.057 846.571 483.718 849.261 481.478C851.951 479.248 857.291 473.817 861.12 469.417C864.95 465.017 870.901 457.147 874.341 451.917C877.791 446.687 884.551 435.437 889.37 426.917C894.2 418.397 900.041 408.717 902.361 405.417C904.691 402.117 908.341 398.177 910.481 396.667C912.621 395.157 916.621 393.237 919.37 392.407C922.12 391.577 926.62 390.897 929.37 390.907C932.12 390.917 936.06 391.378 938.12 391.928C940.18 392.468 942.551 393.927 943.381 395.167C944.211 396.407 944.881 397.756 944.881 398.167C944.871 398.577 942.541 401.507 939.681 404.667C936.831 407.827 933.571 412.437 932.431 414.917C930.721 418.657 930.391 421.277 930.471 430.417C930.551 438.827 931.211 443.887 933.261 451.917C934.741 457.687 936.211 466.247 936.541 470.917C936.911 476.277 936.651 481.637 935.841 485.417C935.141 488.717 932.961 494.567 931.001 498.417C928.871 502.597 925.011 507.867 921.401 511.497C917.661 515.267 912.9 518.798 908.87 520.768C905.29 522.518 899.67 524.377 896.37 524.917C892.651 525.517 888.28 525.538 884.87 524.978C881.851 524.478 877.68 523.357 875.62 522.497C873.56 521.627 869.791 519.007 867.251 516.667C864.711 514.327 861.841 510.837 860.881 508.917C859.911 506.997 858.801 503.837 857.731 498.417L854.551 501.548C852.801 503.268 848.67 506.648 845.37 509.048C842.07 511.458 835.54 515.297 830.87 517.587C826.201 519.867 819.67 522.558 816.37 523.558C812.251 524.798 807.071 525.378 799.851 525.388C790.001 525.418 788.901 525.207 782.601 522.167C778.501 520.187 774.691 517.447 772.851 515.167C771.191 513.107 768.991 509.167 767.971 506.417C766.951 503.667 765.791 499.617 764.681 493.417L754.861 503.417C749.451 508.917 742.631 514.877 739.701 516.657C736.771 518.447 731.45 521.087 727.87 522.527C722.881 524.537 719.63 525.147 713.87 525.148C709.081 525.157 704.92 524.548 702.37 523.478C700.171 522.558 697.531 521.037 696.511 520.107C695.491 519.177 693.751 516.617 692.641 514.417C691.541 512.217 690.35 508.107 689.37 500.138L681.87 507.138C677.741 510.978 671.89 515.629 668.87 517.469C665.85 519.309 660.67 521.738 657.37 522.878C653.94 524.068 648.8 524.957 645.37 524.957C640.801 524.967 638.54 524.428 635.87 522.698C633.781 521.338 631.391 518.397 629.941 515.417C627.951 511.327 627.521 508.967 627.601 502.417C627.641 498.017 628.361 491.497 629.201 487.917C630.031 484.337 631.711 478.497 632.931 474.917C634.151 471.337 637.961 462.337 641.401 454.917C644.841 447.497 651.101 433.767 655.331 424.417C659.551 415.067 663.771 406.587 664.691 405.577C666.181 403.957 667.742 403.787 678.211 404.077C689.681 404.407 690.121 404.497 692.461 407.167C694.691 409.707 694.771 410.157 693.521 413.167C692.781 414.957 686.501 428.337 679.581 442.917C672.652 457.497 665.602 473.576 663.921 478.667C662.242 483.756 660.881 488.706 660.901 489.667C660.911 490.627 661.701 492.217 662.651 493.197C663.591 494.177 665.04 494.978 665.87 494.968C666.701 494.958 669.391 493.648 671.87 492.048C674.35 490.458 678.921 486.517 682.041 483.287C685.161 480.057 690.911 473.147 694.821 467.917C698.741 462.687 703.011 456.167 704.331 453.417C705.652 450.666 710.131 440.876 714.301 431.667C718.461 422.457 721.87 414.687 721.87 414.417C721.867 414.147 719.279 413.937 716.12 413.957C712.041 413.997 709.93 413.537 708.87 412.377C707.531 410.927 707.561 410.147 709.12 405.327C710.08 402.357 711.99 398.567 713.37 396.917C715.77 394.037 716.201 393.917 731.87 393.917L737.941 381.167C741.281 374.157 744.721 367.627 745.591 366.667C746.941 365.167 749.092 364.918 760.771 364.898ZM901.37 435.907C900.27 438.357 895.37 446.448 890.48 453.888C885.59 461.328 879.14 470.787 876.14 474.917C870.91 482.117 870.741 482.537 872.031 485.317C872.771 486.907 875.281 489.947 877.62 492.067C879.96 494.187 883.11 496.187 884.62 496.527C886.13 496.857 888.27 496.887 889.37 496.587C890.47 496.287 892.67 494.997 894.27 493.728C895.86 492.458 898.2 489.617 899.47 487.417C900.74 485.217 902.45 480.717 903.27 477.417C904.48 472.557 904.631 467.607 904.071 451.438L903.37 431.457L901.37 435.907ZM584 437.098C582.12 441.128 576.85 450.047 572.3 456.917C567.74 463.797 562.001 472.117 559.531 475.417L555.05 481.417C557.87 486.847 560.201 489.847 562.031 491.607C563.871 493.357 566.721 495.308 568.37 495.928C570.02 496.548 572.721 496.817 574.37 496.537C576.09 496.237 578.89 494.398 580.93 492.218C582.89 490.128 585.531 485.717 586.811 482.417C588.121 479.007 589.3 473.397 589.54 469.417C589.77 465.567 589.381 455.077 588.691 446.098L587.43 429.777L584 437.098ZM313.111 421.928C312.151 421.928 310.011 422.748 308.361 423.758C306.711 424.758 303.17 428.017 300.5 430.997C297.82 433.977 292.93 440.467 289.63 445.417C286.33 450.367 282.33 457.007 280.75 460.167C279.16 463.327 276.741 469.297 275.361 473.417C273.781 478.167 272.86 483.207 272.85 487.167C272.84 490.897 273.34 493.927 274.1 494.688C274.79 495.378 276.491 495.958 277.861 495.968C279.241 495.968 282.391 494.528 284.861 492.758C287.341 490.988 291.761 487.038 294.691 483.978C297.621 480.918 302.06 475.717 304.55 472.417C307.05 469.117 310.561 463.497 312.361 459.917C314.161 456.347 316.591 450.267 317.771 446.417C319.001 442.397 319.9 436.757 319.88 433.167C319.87 427.847 319.491 426.547 317.361 424.417C315.991 423.047 314.081 421.918 313.111 421.928ZM837.62 422.928C836.38 422.928 834.02 423.637 832.37 424.487C830.72 425.347 828.31 427.037 827.02 428.237C825.72 429.438 821.62 434.467 817.901 439.417C814.171 444.367 809.27 452.127 807 456.667C804.73 461.207 802.98 465.168 803.12 465.468C803.263 465.777 806.292 465.297 809.87 464.417C813.45 463.527 818.57 461.597 821.26 460.117C823.94 458.627 828.44 454.927 831.26 451.877C834.07 448.837 837.82 443.657 839.59 440.377C841.737 436.404 842.82 433 842.84 430.167C842.86 427.687 842.25 425.297 841.37 424.417C840.54 423.597 838.86 422.928 837.62 422.928ZM522.861 422.947C521.491 422.937 519.011 423.758 517.361 424.768C515.711 425.778 512.681 428.468 510.611 430.758C508.551 433.048 504.281 438.408 501.111 442.678C497.951 446.948 493.901 453.698 492.111 457.678C490.331 461.658 488.981 465.168 489.111 465.468C489.254 465.767 492.293 465.297 495.861 464.417C499.441 463.527 504.56 461.597 507.25 460.107C509.94 458.627 514.44 454.947 517.26 451.917C520.08 448.897 523.861 443.497 525.651 439.917C527.441 436.337 528.91 431.847 528.92 429.917C528.92 427.857 528.191 425.707 527.151 424.697C526.161 423.747 524.241 422.957 522.861 422.947ZM690.251 355.667C693.391 354.597 696.721 354.138 698.87 354.487C700.79 354.807 703.38 355.707 704.62 356.487C705.86 357.277 707.641 359.157 708.581 360.667C709.701 362.467 710.26 365.317 710.201 368.917C710.141 371.937 709.371 376.107 708.481 378.167C707.601 380.227 705.141 383.827 703.021 386.167C700.831 388.577 696.831 391.437 693.771 392.787C689.751 394.547 687.05 395.057 683.201 394.787C679.101 394.497 677.381 393.797 674.901 391.417C673.191 389.767 671.301 386.837 670.711 384.917C670.121 382.997 669.911 379.277 670.251 376.667C670.671 373.477 671.941 370.548 674.12 367.758C675.91 365.478 679.121 362.218 681.251 360.508C683.391 358.808 687.441 356.627 690.251 355.667ZM788.62 0.0083366C790.409 -0.0416247 791.869 0.137789 791.87 0.417516C791.87 0.687512 790.18 1.98766 788.12 3.28763C786.06 4.59781 779.98 9.318 764.87 21.9175L770.12 21.2183C773.36 20.7884 775.141 20.8784 774.761 21.4683C774.43 21.9891 769.108 25.7892 751.741 37.4175L763.87 37.9175L757.62 43.0084C754.18 45.8083 749.12 49.2978 741.37 53.4175L745.12 53.6675C747.18 53.8075 748.889 54.2577 748.91 54.6675C748.93 55.0775 747.02 56.7275 744.66 58.3375C742.301 59.9474 737.511 63.9975 734.021 67.3375C730.521 70.677 726.882 74.5371 725.921 75.9175C724.691 77.6975 727.241 76.3975 734.781 71.4175C740.6 67.5677 748.52 63.1879 752.37 61.6978C756.22 60.1979 762.29 58.1776 765.87 57.2076C770.68 55.8976 776.141 55.4381 786.87 55.438C800.2 55.438 801.971 55.6584 808.87 58.1783C812.99 59.6983 818.85 62.3883 821.87 64.1783C824.89 65.9583 832.641 72.5876 839.081 78.9175C845.52 85.2365 850.8 91.2061 850.831 92.1675C850.851 93.1274 850.64 93.9173 850.37 93.9175C850.097 93.9158 846.608 92.3672 842.62 90.4683C838.63 88.5683 831.54 85.6276 818.37 80.8677L823.111 85.6382C825.71 88.2676 827.85 90.9768 827.861 91.6675C827.861 92.3573 827.76 92.9277 827.62 92.938C827.472 92.9449 823.315 91.4658 818.37 89.6578C813.421 87.8378 807.01 84.8974 798.87 79.9175L803.41 86.1675C805.91 89.6063 807.929 92.7557 807.91 93.1675C807.89 93.5775 807.08 93.9183 806.12 93.9283C805.159 93.9278 800.1 92.5479 794.87 90.8482C789.641 89.1582 783.25 86.7882 780.66 85.5982C778.072 84.3988 776.053 83.6386 776.191 83.9175C776.321 84.1875 777.091 85.6478 777.901 87.1578C778.711 88.6576 779.14 90.0972 778.87 90.3375C778.6 90.5874 773.64 90.3481 767.87 89.8082C762.1 89.2782 753.54 88.9676 740.37 89.4175L749.37 91.6578C754.32 92.8877 761.74 95.5575 765.87 97.5875C771.42 100.327 775.461 103.397 781.421 109.357C786.601 114.547 790.661 119.727 792.831 123.917C794.691 127.487 797.2 133.337 798.41 136.917C799.62 140.487 801.191 147.017 801.901 151.417C802.711 156.477 802.951 162.907 802.551 168.917C802.201 174.137 801.421 180.217 799.731 186.417L797.451 181.417C796.2 178.667 793.24 173.267 790.87 169.417C788.5 165.567 784.87 159.267 779.071 148.417L777.721 153.678C776.981 156.577 776.141 158.947 775.87 158.938C775.598 158.933 773.039 154.545 770.191 149.178C767.341 143.808 764.411 137.288 763.691 134.688C762.961 132.089 762.262 130.06 762.131 130.188C761.991 130.318 761.54 133.318 760.37 143.308L755.181 135.357C752.321 130.987 748.641 124.487 743.991 114.417L742.37 122.697L733.311 112.558C728.331 106.978 724.001 101.737 723.681 100.917C723.171 99.588 722.921 99.5879 721.391 100.917C719.761 102.327 719.901 103.398 723.741 118.917C725.991 127.987 728.711 141.037 729.801 147.917C730.891 154.787 732.311 166.037 732.961 172.917C733.701 180.817 733.921 193.337 733.541 206.917C733.191 219.227 732.061 234.937 730.901 243.667C729.781 252.057 727.721 264.427 726.321 271.167C724.911 277.907 721.611 289.717 718.971 297.417C716.341 305.116 713.871 312.085 713.481 312.917C712.921 314.117 714.361 314.797 720.571 316.277C724.861 317.307 734.221 319.937 741.37 322.127C748.52 324.317 759.77 328.437 766.37 331.287C772.97 334.127 782.2 338.557 786.87 341.127C791.54 343.697 799.161 348.407 803.801 351.607C808.431 354.797 812.701 358.198 813.301 359.148C814.101 360.447 814 361.268 812.87 362.468C811.501 363.927 810.179 363.707 797.87 360.058C790.45 357.858 776.49 354.248 766.87 352.048C757.24 349.848 742.85 346.897 734.87 345.487C726.89 344.087 712.49 341.938 702.87 340.728C687.391 338.768 680.58 338.508 643.87 338.468C610.321 338.428 599.21 338.767 585.87 340.237C576.79 341.227 561.49 343.378 551.87 345.018C542.24 346.648 527.39 349.728 518.87 351.857C510.351 353.987 500.561 356.677 497.12 357.827C493.681 358.977 490.201 359.917 489.37 359.917C488.541 359.917 487.87 359.027 487.87 357.917C487.871 356.767 489.691 354.447 492.12 352.468C494.461 350.578 501.541 346.067 507.87 342.457C514.2 338.847 524.99 333.588 531.87 330.768C538.74 327.948 550.22 323.888 557.37 321.728C564.52 319.578 575.191 316.827 581.091 315.617C589.871 313.817 591.911 313.057 592.401 311.417C592.721 310.315 593.241 299.065 593.541 286.417C593.951 269.007 593.691 259.777 592.471 248.417C591.591 240.167 589.571 227.117 587.991 219.417C586.421 211.717 584.391 202.827 583.501 199.667C582.441 195.947 581.34 193.917 580.37 193.917C579.54 193.918 576.51 197.078 573.62 200.938C570.731 204.807 568.031 207.957 567.62 207.938C567.21 207.927 566.53 206.557 566.12 204.898C565.71 203.228 565.03 201.878 564.62 201.898C564.209 201.911 561.958 206.854 555.37 223.848L552.16 214.417L551.401 219.917C550.971 222.937 549.371 228.567 547.841 232.417C546.151 236.647 544.831 238.827 544.491 237.917C544.18 237.087 543.431 235.067 542.831 233.417C541.792 230.577 541.671 230.518 540.601 232.417C539.991 233.517 537.591 239.137 535.281 244.917C532.981 250.687 530.861 254.967 530.571 254.417C530.29 253.866 529.571 250.716 528.961 247.417C528.351 244.117 527.871 238.937 527.881 235.917C527.891 232.887 528.521 227.487 529.271 223.917C530.021 220.337 532.101 214.487 533.901 210.917C535.741 207.267 539.521 202.117 542.521 199.167C545.861 195.887 550.601 192.647 555.12 190.537C559.11 188.667 563.72 186.768 565.37 186.298C568.15 185.518 568 185.438 563.37 185.138C560.62 184.958 555.45 185.448 551.87 186.218C548.291 186.988 544.581 187.918 543.62 188.268C542.381 188.727 541.871 188.407 541.851 187.167C541.841 186.207 542.381 184.857 543.051 184.167C543.721 183.477 544.07 182.898 543.821 182.888C543.57 182.869 541.57 184.258 539.37 185.987C537.17 187.707 533.23 190.198 530.62 191.518C528.011 192.837 525.641 193.687 525.37 193.417C525.102 193.136 525.762 191.456 526.841 189.667C527.921 187.877 528.821 186.077 528.841 185.667C528.859 185.259 526.509 186.689 523.62 188.848C520.73 191.008 515.67 194.118 512.37 195.768C509.071 197.407 506.26 198.347 506.12 197.837C505.981 197.326 506.991 195.116 508.37 192.917C509.74 190.717 510.64 188.918 510.37 188.917C510.097 188.919 506.378 191.229 502.12 194.058C497.861 196.887 493.351 200.148 492.091 201.308C490.361 202.908 489.831 203.057 489.881 201.917C489.912 201.086 491.371 197.716 493.12 194.417C494.921 191.017 499.571 185.128 503.841 180.848C507.981 176.688 513.39 172.308 515.87 171.138C518.35 169.958 523.291 168.247 526.87 167.327C531.68 166.097 535.721 165.808 542.37 166.228C547.6 166.548 553.88 167.677 557.37 168.907C560.67 170.067 564.951 171.978 570.37 175.268L567.87 172.537C566.49 171.027 562.8 168.137 559.66 166.107C556.521 164.078 553.94 162.077 553.91 161.667C553.891 161.258 554.431 161.178 555.12 161.487C555.81 161.807 555.47 161.317 554.37 160.407C553.27 159.497 550.12 157.618 547.37 156.218C544.621 154.828 541.731 153.168 540.951 152.548C539.851 151.668 540.831 151.307 551.37 150.417L546.87 147.478C544.39 145.858 540.06 143.608 537.241 142.478C534.411 141.348 531.711 140.097 531.241 139.707C530.762 139.317 532.273 138.647 538.831 137.417L516.37 126.027L521.37 125.327C524.12 124.937 530.201 125.127 534.87 125.747C540.88 126.547 545.421 127.887 550.37 130.327C554.91 132.557 559.481 135.908 563.37 139.857C566.67 143.207 570.841 148.308 572.641 151.178C574.431 154.058 577.121 159.567 578.601 163.417C580.321 167.887 581.41 169.697 581.62 168.417C581.801 167.316 582.651 162.816 583.511 158.417C584.361 154.017 586.441 147.717 588.12 144.417C589.8 141.117 593.691 135.878 596.771 132.768C599.891 129.618 604.8 125.977 607.87 124.537C610.89 123.117 616.741 121.247 620.87 120.377C624.99 119.517 629.72 118.947 631.37 119.117C634.28 119.407 634.16 119.567 627.321 124.417C623.441 127.167 619.16 130.177 615.37 132.817L619.62 132.867C621.96 132.897 623.88 133.257 623.891 133.667C623.901 134.077 621.761 135.468 619.141 136.758C616.521 138.048 612.471 140.528 610.151 142.258C607.832 143.997 605.922 145.756 605.901 146.167C605.881 146.577 608.231 147.027 616.37 147.417L608.12 153.167C603.582 156.326 600.103 159.366 600.37 159.917C600.64 160.467 599.86 161.748 598.62 162.758C597.38 163.778 594.79 166.578 589.37 173.398L592.87 171.117C594.79 169.867 598.851 167.557 601.87 165.987C604.89 164.417 609.85 162.437 612.87 161.587C615.89 160.747 620.62 159.767 623.37 159.407C626.12 159.057 631.291 159.297 634.87 159.947C638.45 160.597 641.82 161.318 642.37 161.558C642.95 161.797 643.921 158.037 644.681 152.697C645.401 147.597 647.121 140.037 648.501 135.917C649.881 131.787 652.401 126.167 654.081 123.417C655.771 120.667 658.601 116.497 660.37 114.148C662.14 111.808 666.471 107.808 669.981 105.268C673.491 102.718 679.741 98.9779 691.37 93.2281L687.12 92.5679C684.78 92.208 678.48 92.4077 673.12 92.9976C667.761 93.5876 661.001 94.8276 658.111 95.7476C652.931 97.3876 652.851 97.3875 653.301 95.4175C653.561 94.3175 654.091 92.5174 654.501 91.4175C655.031 89.9883 654.05 90.4882 651.051 93.1675C648.751 95.2275 644.96 97.7479 642.62 98.7779C640.281 99.7978 637.36 100.917 633.87 101.917L636.37 95.4175C637.74 91.838 638.53 88.9381 638.12 88.9576C637.709 88.9892 634.779 91.4586 631.62 94.4576C628.05 97.8575 623.03 101.237 618.37 103.417C614.241 105.337 610.641 106.687 610.37 106.417C610.102 106.136 610.881 104.256 612.12 102.228C613.36 100.198 613.92 98.7379 613.37 98.9976C612.819 99.2484 606.739 102.208 599.87 105.587C592.991 108.957 586.361 111.987 585.12 112.317C583.881 112.647 582.87 112.467 582.87 111.917C582.871 111.366 583.721 109.226 584.761 107.167C585.791 105.107 589.311 99.8172 592.571 95.4175C595.831 91.0175 601.391 84.8074 604.931 81.6275C608.471 78.4376 614.741 74.078 618.87 71.938C622.99 69.7881 629.52 67.2876 633.37 66.3775C637.31 65.4375 644.751 64.678 650.37 64.648C657.46 64.598 662.991 65.218 669.37 66.7779C674.32 67.9879 682.421 70.9378 696.37 77.7076L689.87 71.7076C686.29 68.4076 679.99 63.4878 675.87 60.7779C671.741 58.058 667.361 55.6376 666.12 55.3775C664.881 55.1274 663.87 54.4675 663.87 53.9175C663.871 53.3676 665.561 52.6281 667.62 52.2681C671.37 51.6081 671.35 51.608 659.37 45.9781C652.771 42.8882 647.031 39.8083 646.62 39.1382C646.081 38.2683 646.941 37.8982 649.62 37.8482C651.68 37.8082 654.211 37.4682 655.231 37.0982C656.651 36.5782 655.25 35.5582 649.231 32.7584C644.911 30.7384 638.45 28.0775 634.87 26.8375C631.291 25.6075 627.921 24.2477 627.37 23.8277C626.822 23.4076 628.731 22.5777 631.62 21.9878C634.51 21.398 637.66 20.8979 638.62 20.8677C639.58 20.8376 636.32 18.8983 631.37 16.5484C626.421 14.1985 620.221 11.4082 617.601 10.3482C614.321 9.01818 613.161 8.10752 613.901 7.41752C614.522 6.83761 621.182 6.4383 629.671 6.4683C640.591 6.49831 646.041 6.97823 650.87 8.30814C654.45 9.28814 661.201 12.0481 665.87 14.438C671.02 17.078 677.13 21.3179 681.37 25.1978C685.22 28.7278 690.691 34.9381 693.521 39.0181C696.351 43.0881 700.751 50.6876 703.301 55.9175C705.851 61.1375 708.711 67.788 709.651 70.688C710.6 73.5769 711.71 75.9463 712.12 75.938C712.53 75.9277 712.871 74.2273 712.881 72.1675C712.881 70.1072 713.811 64.5872 714.941 59.9175C716.071 55.2376 717.941 49.1675 719.111 46.4175C720.271 43.6674 723.171 38.3774 725.551 34.6675C727.921 30.9576 732.351 25.4374 735.37 22.4175C738.39 19.3876 743.23 15.3977 746.12 13.5377C749.01 11.6877 754.07 9.03753 757.37 7.66752C760.67 6.29762 765.17 4.59806 767.37 3.89798C769.57 3.19801 774.521 2.05794 778.37 1.35795C782.22 0.668014 786.83 0.0584285 788.62 0.0083366ZM707.09 108.697C706.02 110.737 702.49 115.657 699.26 119.617C696.02 123.587 693.031 126.847 692.62 126.867C692.21 126.897 691.58 125.677 691.22 124.167C690.59 121.548 690.531 121.598 689.821 125.417C689.411 127.617 687.6 132.567 685.79 136.417L682.5 143.417C678.791 129.688 678.33 128.837 677.76 130.917C677.38 132.297 677.02 134.767 676.96 136.417C676.89 138.067 675.391 143.657 673.611 148.837C671.831 154.017 669.921 158.417 669.37 158.607C668.82 158.807 667.501 157.267 666.441 155.188C664.861 152.098 664.45 151.777 664.13 153.417C663.92 154.517 662.65 158.907 661.31 163.167L658.87 170.917C664.11 177.507 667.04 181.777 668.75 184.667C670.47 187.556 671.64 190.146 671.37 190.417C671.09 190.697 667.27 189.117 662.87 186.917L654.87 182.917C653.411 188.727 652.69 191.767 652.33 193.417C651.97 195.077 651.34 195.967 650.93 195.417C650.52 194.866 649.15 191.496 647.901 187.917C646.651 184.347 644.551 180.407 643.241 179.167C641.941 177.927 640.641 177.148 640.37 177.417C640.09 177.697 640.321 178.817 640.87 179.917C641.42 181.017 641.76 182.097 641.62 182.327C641.48 182.547 639.34 182.047 636.87 181.207C634.39 180.367 631.031 178.727 629.401 177.547C626.871 175.727 626.541 175.677 627.151 177.167C627.551 178.127 628.1 179.477 628.37 180.167C628.76 181.127 626.85 181.327 620.12 181.027C615.311 180.817 609.121 180.997 606.37 181.417L601.37 182.197C609.12 184.277 613.62 185.977 616.37 187.327C619.12 188.677 623.73 192.278 626.62 195.348C629.51 198.408 632.98 203.277 634.33 206.167C635.68 209.057 637.49 214.117 638.34 217.417C639.38 221.397 639.81 226.787 639.64 233.417L639.37 243.417C631.231 227.527 628.64 223.027 628.35 223.167C628.06 223.308 627.491 224.998 627.071 226.917L626.321 230.417C621.841 222.667 619.52 217.717 618.26 214.417L615.97 208.417C615.89 215.007 615.53 216.917 615.12 216.928C614.71 216.928 612.97 214.568 611.25 211.678C609.54 208.788 607.66 205.067 607.08 203.417C606.181 200.857 606.021 200.747 605.951 202.667C605.911 203.907 605.42 204.917 604.87 204.917C604.32 204.917 600.83 202.227 597.12 198.938C593.41 195.648 590.26 193.178 590.12 193.438C589.981 193.698 591.171 197.178 592.771 201.167C594.361 205.157 597.24 213.367 599.17 219.417C601.1 225.467 604.061 235.597 605.741 241.917C607.421 248.247 610.15 260.167 611.8 268.417C613.45 276.667 615.49 288.707 616.34 295.167C617.18 301.626 617.87 307.475 617.87 308.167C617.87 309.147 624.59 309.377 648.62 309.247L679.37 309.067C684.57 300.817 688.95 292.567 692.46 285.417C695.97 278.267 700.92 266.117 703.47 258.417C706.02 250.717 709.381 238.567 710.941 231.417C712.491 224.267 714.52 211.897 715.43 203.917C716.72 192.697 716.981 184.207 716.571 166.417C716.151 148.327 715.47 139.897 713.39 126.917C711.94 117.847 710.36 109.187 709.89 107.697L709.04 104.968L707.09 108.697Z" fill="white"/>
</svg>
