<svg width="991" height="112" viewBox="0 0 991 112" fill="none" xmlns="http://www.w3.org/2000/svg">
<style>
@-webkit-keyframes animate-svg-stroke-1 {
  0% {
    stroke-dashoffset: 2208px;
    stroke-dasharray: 2208px;
  }

  100% {
    stroke-dashoffset: 0;
    stroke-dasharray: 2208px;
  }
}

@keyframes animate-svg-stroke-1 {
  0% {
    stroke-dashoffset: 2208px;
    stroke-dasharray: 2208px;
  }

  100% {
    stroke-dashoffset: 0;
    stroke-dasharray: 2208px;
  }
}

@-webkit-keyframes animate-svg-fill-1 {
  0% {
    fill: transparent;
  }

  100% {
    fill: rgb(255, 255, 255);
  }
}

@keyframes animate-svg-fill-1 {
  0% {
    fill: transparent;
  }

  100% {
    fill: rgb(255, 255, 255);
  }
}

.svg-elem-1 {
  -webkit-animation: animate-svg-stroke-1 2s ease-out 0s both,
                       animate-svg-fill-1 5s ease-in-out 2s both;
          animation: animate-svg-stroke-1 2s ease-out 0s both,
               animate-svg-fill-1 5s ease-in-out 2s both;
}

@-webkit-keyframes animate-svg-stroke-2 {
  0% {
    stroke-dashoffset: 1373.01953125px;
    stroke-dasharray: 1373.01953125px;
  }

  100% {
    stroke-dashoffset: 0;
    stroke-dasharray: 1373.01953125px;
  }
}

@keyframes animate-svg-stroke-2 {
  0% {
    stroke-dashoffset: 1373.01953125px;
    stroke-dasharray: 1373.01953125px;
  }

  100% {
    stroke-dashoffset: 0;
    stroke-dasharray: 1373.01953125px;
  }
}

@-webkit-keyframes animate-svg-fill-2 {
  0% {
    fill: transparent;
  }

  100% {
    fill: rgb(0, 0, 0);
  }
}

@keyframes animate-svg-fill-2 {
  0% {
    fill: transparent;
  }

  100% {
    fill: rgb(0, 0, 0);
  }
}

.svg-elem-2 {
  -webkit-animation: animate-svg-stroke-2 2s ease-out 0.7s both,
                       animate-svg-fill-2 5s ease-in-out 2.5s both;
          animation: animate-svg-stroke-2 2s ease-out 0.7s both,
               animate-svg-fill-2 5s ease-in-out 2.5s both;
}

@-webkit-keyframes animate-svg-stroke-3 {
  0% {
    stroke-dashoffset: 602.4466552734375px;
    stroke-dasharray: 602.4466552734375px;
  }

  100% {
    stroke-dashoffset: 0;
    stroke-dasharray: 602.4466552734375px;
  }
}

@keyframes animate-svg-stroke-3 {
  0% {
    stroke-dashoffset: 602.4466552734375px;
    stroke-dasharray: 602.4466552734375px;
  }

  100% {
    stroke-dashoffset: 0;
    stroke-dasharray: 602.4466552734375px;
  }
}

@-webkit-keyframes animate-svg-fill-3 {
  0% {
    fill: transparent;
  }

  100% {
    fill: rgb(0, 0, 0);
  }
}

@keyframes animate-svg-fill-3 {
  0% {
    fill: transparent;
  }

  100% {
    fill: rgb(0, 0, 0);
  }
}

.svg-elem-3 {
  -webkit-animation: animate-svg-stroke-3 2s ease-out 1.4s both,
                       animate-svg-fill-3 5s ease-in-out 3s both;
          animation: animate-svg-stroke-3 2s ease-out 1.4s both,
               animate-svg-fill-3 5s ease-in-out 3s both;
}

@-webkit-keyframes animate-svg-stroke-4 {
  0% {
    stroke-dashoffset: 2375.759521484375px;
    stroke-dasharray: 2375.759521484375px;
  }

  100% {
    stroke-dashoffset: 0;
    stroke-dasharray: 2375.759521484375px;
  }
}

@keyframes animate-svg-stroke-4 {
  0% {
    stroke-dashoffset: 2375.759521484375px;
    stroke-dasharray: 2375.759521484375px;
  }

  100% {
    stroke-dashoffset: 0;
    stroke-dasharray: 2375.759521484375px;
  }
}

@-webkit-keyframes animate-svg-fill-4 {
  0% {
    fill: transparent;
  }

  100% {
    fill: rgb(0, 0, 0);
  }
}

@keyframes animate-svg-fill-4 {
  0% {
    fill: transparent;
  }

  100% {
    fill: rgb(0, 0, 0);
  }
}

.svg-elem-4 {
  -webkit-animation: animate-svg-stroke-4 2s ease-out 2.0999999999999996s both,
                       animate-svg-fill-4 5s ease-in-out 3.5s both;
          animation: animate-svg-stroke-4 2s ease-out 2.0999999999999996s both,
               animate-svg-fill-4 5s ease-in-out 3.5s both;
}

@-webkit-keyframes animate-svg-stroke-5 {
  0% {
    stroke-dashoffset: 1373.01953125px;
    stroke-dasharray: 1373.01953125px;
  }

  100% {
    stroke-dashoffset: 0;
    stroke-dasharray: 1373.01953125px;
  }
}

@keyframes animate-svg-stroke-5 {
  0% {
    stroke-dashoffset: 1373.01953125px;
    stroke-dasharray: 1373.01953125px;
  }

  100% {
    stroke-dashoffset: 0;
    stroke-dasharray: 1373.01953125px;
  }
}

@-webkit-keyframes animate-svg-fill-5 {
  0% {
    fill: transparent;
  }

  100% {
    fill: rgb(128, 0, 128);
  }
}

@keyframes animate-svg-fill-5 {
  0% {
    fill: transparent;
  }

  100% {
    fill: rgb(128, 0, 128);
  }
}

.svg-elem-5 {
  -webkit-animation: animate-svg-stroke-5 2s ease-out 2.8s both,
                       animate-svg-fill-5 5s ease-in-out 4s both;
          animation: animate-svg-stroke-5 2s ease-out 2.8s both,
               animate-svg-fill-5 5s ease-in-out 4s both;
}

@-webkit-keyframes animate-svg-stroke-6 {
  0% {
    stroke-dashoffset: 602.4466552734375px;
    stroke-dasharray: 602.4466552734375px;
  }

  100% {
    stroke-dashoffset: 0;
    stroke-dasharray: 602.4466552734375px;
  }
}

@keyframes animate-svg-stroke-6 {
  0% {
    stroke-dashoffset: 602.4466552734375px;
    stroke-dasharray: 602.4466552734375px;
  }

  100% {
    stroke-dashoffset: 0;
    stroke-dasharray: 602.4466552734375px;
  }
}

@-webkit-keyframes animate-svg-fill-6 {
  0% {
    fill: transparent;
  }

  100% {
    fill: rgb(128, 0, 128);
  }
}

@keyframes animate-svg-fill-6 {
  0% {
    fill: transparent;
  }

  100% {
    fill: rgb(128, 0, 128);
  }
}

.svg-elem-6 {
  -webkit-animation: animate-svg-stroke-6 2s ease-out 3.5s both,
                       animate-svg-fill-6 5s ease-in-out 4.5s both;
          animation: animate-svg-stroke-6 2s ease-out 3.5s both,
               animate-svg-fill-6 5s ease-in-out 4.5s both;
}

@-webkit-keyframes animate-svg-stroke-7 {
  0% {
    stroke-dashoffset: 2375.759521484375px;
    stroke-dasharray: 2375.759521484375px;
  }

  100% {
    stroke-dashoffset: 0;
    stroke-dasharray: 2375.759521484375px;
  }
}

@keyframes animate-svg-stroke-7 {
  0% {
    stroke-dashoffset: 2375.759521484375px;
    stroke-dasharray: 2375.759521484375px;
  }

  100% {
    stroke-dashoffset: 0;
    stroke-dasharray: 2375.759521484375px;
  }
}

@-webkit-keyframes animate-svg-fill-7 {
  0% {
    fill: transparent;
  }

  100% {
    fill: rgb(128, 0, 128);
  }
}

@keyframes animate-svg-fill-7 {
  0% {
    fill: transparent;
  }

  100% {
    fill: rgb(128, 0, 128);
  }
}

.svg-elem-7 {
  -webkit-animation: animate-svg-stroke-7 2s ease-out 4.199999999999999s both,
                       animate-svg-fill-7 5s ease-in-out 5s both;
          animation: animate-svg-stroke-7 2s ease-out 4.199999999999999s both,
               animate-svg-fill-7 5s ease-in-out 5s both;
}

@-webkit-keyframes animate-svg-stroke-8 {
  0% {
    stroke-dashoffset: 1373.01953125px;
    stroke-dasharray: 1373.01953125px;
  }

  100% {
    stroke-dashoffset: 0;
    stroke-dasharray: 1373.01953125px;
  }
}

@keyframes animate-svg-stroke-8 {
  0% {
    stroke-dashoffset: 1373.01953125px;
    stroke-dasharray: 1373.01953125px;
  }

  100% {
    stroke-dashoffset: 0;
    stroke-dasharray: 1373.01953125px;
  }
}

.svg-elem-8 {
  -webkit-animation: animate-svg-stroke-8 2s ease-out 4.8999999999999995s both,
                       animate-svg-fill-8 5s ease-in-out 5.5s both;
          animation: animate-svg-stroke-8 2s ease-out 4.8999999999999995s both,
               animate-svg-fill-8 5s ease-in-out 5.5s both;
}

@-webkit-keyframes animate-svg-stroke-9 {
  0% {
    stroke-dashoffset: 602.4466552734375px;
    stroke-dasharray: 602.4466552734375px;
  }

  100% {
    stroke-dashoffset: 0;
    stroke-dasharray: 602.4466552734375px;
  }
}

@keyframes animate-svg-stroke-9 {
  0% {
    stroke-dashoffset: 602.4466552734375px;
    stroke-dasharray: 602.4466552734375px;
  }

  100% {
    stroke-dashoffset: 0;
    stroke-dasharray: 602.4466552734375px;
  }
}

.svg-elem-9 {
  -webkit-animation: animate-svg-stroke-9 2s ease-out 5.6s both,
                       animate-svg-fill-9 5s ease-in-out 6s both;
          animation: animate-svg-stroke-9 2s ease-out 5.6s both,
               animate-svg-fill-9 5s ease-in-out 6s both;
}

@-webkit-keyframes animate-svg-stroke-10 {
  0% {
    stroke-dashoffset: 2375.759521484375px;
    stroke-dasharray: 2375.759521484375px;
  }

  100% {
    stroke-dashoffset: 0;
    stroke-dasharray: 2375.759521484375px;
  }
}

@keyframes animate-svg-stroke-10 {
  0% {
    stroke-dashoffset: 2375.759521484375px;
    stroke-dasharray: 2375.759521484375px;
  }

  100% {
    stroke-dashoffset: 0;
    stroke-dasharray: 2375.759521484375px;
  }
}

.svg-elem-10 {
  -webkit-animation: animate-svg-stroke-10 2s ease-out 6.3s both,
                       animate-svg-fill-10 5s ease-in-out 6.5s both;
          animation: animate-svg-stroke-10 2s ease-out 6.3s both,
               animate-svg-fill-10 5s ease-in-out 6.5s both;
}

</style>

<mask id="path-1-outside-1_18_28" maskUnits="userSpaceOnUse" x="0" y="0.0179443" width="991" height="112" fill="black">
<rect fill="white" y="0.0179443" width="991" height="112" class="svg-elem-1"></rect>
<path fill-rule="evenodd" clip-rule="evenodd" d="M196.038 109.307H291.586C295.17 109.307 297.786 106.702 297.786 103.113V84.5245C297.786 80.9351 295.175 78.3301 291.586 78.3301H216.911C213.648 78.3301 211.037 76.046 211.037 72.7829C211.037 69.8516 213.648 67.2357 216.911 67.2357H291.586C294.849 67.2357 297.786 64.6252 297.786 61.3621V49.9523C297.786 46.6892 294.849 44.0788 291.586 44.0788H216.911C213.648 44.0788 211.037 41.4738 211.037 38.5316C211.037 35.2685 213.648 32.9844 216.911 32.9844H291.586C295.17 32.9844 297.786 30.3794 297.786 26.79V8.54402C297.786 4.95465 295.175 2.34964 291.586 2.34964H196.038C181.365 2.34964 169.624 14.0912 169.624 28.1115V82.8984C169.609 86.3709 170.283 89.812 171.605 93.0229C172.927 96.2339 174.873 99.1512 177.328 101.606C179.784 104.062 182.702 106.006 185.913 107.328C189.124 108.65 192.566 109.323 196.038 109.307ZM806.835 2.02335H722.381C707.703 2.02335 695.967 13.7649 695.967 27.7852V82.5721C695.952 86.0449 696.626 89.4862 697.948 92.6975C699.27 95.9087 701.216 98.8263 703.671 101.282C706.127 103.738 709.044 105.683 712.256 107.005C715.467 108.328 718.908 109.001 722.381 108.987H806.835C810.307 109.001 813.749 108.328 816.96 107.005C820.171 105.683 823.089 103.738 825.545 101.282C828 98.8263 829.945 95.9087 831.268 92.6975C832.59 89.4862 833.264 86.0449 833.249 82.5721V27.7852C833.255 13.7649 821.513 2.02335 806.835 2.02335ZM783.689 72.7883C783.689 75.7197 781.404 78.0038 778.462 78.0038H750.748C750.06 78.0133 749.377 77.8849 748.739 77.6263C748.102 77.3677 747.522 76.9841 747.035 76.498C746.548 76.012 746.163 75.4333 745.903 74.7962C745.643 74.1591 745.514 73.4764 745.522 72.7883V37.8953C745.522 34.9531 747.806 32.6798 750.748 32.6798H778.462C781.404 32.6798 783.689 34.9531 783.689 37.8953V72.7883Z" class="svg-elem-2"></path>
<path fill-rule="evenodd" clip-rule="evenodd" d="M962.064 2.02336H877.279C862.927 2.02336 851.191 13.7649 851.191 27.7852V82.5721C851.191 97.2395 862.927 108.987 877.279 108.987H962.064C976.416 108.987 988.152 97.2395 988.152 82.5721V27.7852C988.152 13.7649 976.416 2.02336 962.064 2.02336ZM938.592 72.7884C938.592 75.7197 936.308 78.0038 933.376 78.0038H905.983C905.295 78.0133 904.612 77.8849 903.974 77.6263C903.337 77.3677 902.757 76.9841 902.27 76.498C901.783 76.012 901.398 75.4334 901.138 74.7962C900.878 74.1591 900.748 73.4764 900.756 72.7884V37.8953C900.756 34.9531 903.041 32.6799 905.983 32.6799H933.376C936.308 32.6799 938.592 34.9531 938.592 37.8953V72.7884Z" class="svg-elem-3"></path>
<path fill-rule="evenodd" clip-rule="evenodd" d="M649.332 2.02338H606.281C602.371 2.02338 597.476 3.98119 595.192 6.91251L544.653 63.3363C541.711 66.5885 542.369 71.8149 547.258 71.8149H587.046C589.977 71.4831 593.24 70.8359 595.192 68.2255L623.891 35.9429C627.48 31.7064 632.37 34.306 632.37 37.2373V72.7884C632.37 75.7197 630.085 78.0038 627.154 78.0038H537.8C534.537 78.0038 530.622 79.309 528.996 80.9351L510.733 102.134C508.128 104.418 509.107 108.987 512.691 108.987H649.332C663.673 108.987 675.42 97.2396 675.42 82.5721V27.7853C675.42 13.765 663.673 2.02338 649.332 2.02338ZM476.493 100.829L393.986 7.23884C392.029 4.30208 387.139 2.34967 382.897 2.34967H339.847C325.5 2.34967 313.759 14.0913 313.759 28.1116V82.8984C313.759 97.5658 325.5 109.302 339.847 109.302H413.548C417.459 109.302 418.438 104.745 415.827 102.46L397.239 81.2614C395.607 79.6353 392.023 78.3301 388.434 78.3301H362.019C361.332 78.3389 360.65 78.21 360.013 77.951C359.376 77.692 358.798 77.3081 358.312 76.8221C357.826 76.336 357.442 75.7576 357.183 75.1208C356.924 74.4841 356.795 73.802 356.804 73.1147V37.5636C356.804 34.6322 361.693 32.0164 365.282 36.2583L425.937 105.724C428.221 108.008 431.153 108.987 434.089 109.302H473.872C478.772 109.307 479.43 104.092 476.493 100.829ZM141.904 44.0897H67.2286C63.9656 44.0897 61.6814 41.4847 61.6814 38.5425C61.6814 35.2794 63.9656 32.9953 67.2286 32.9953L141.904 32.6744C145.167 32.6744 148.098 30.064 148.098 26.8009V8.21776C148.098 4.9547 145.161 2.01794 141.904 2.01794L45.377 2.34424C30.6986 2.34424 18.9625 14.0858 18.9625 28.1061V61.3622C18.9625 64.6252 21.5675 67.2357 25.1623 67.2357H92.9905C95.9273 67.2357 98.5377 69.8462 98.5377 72.7829C98.5377 75.7197 95.9273 78.3301 92.9905 78.3301H8.19982C4.93676 78.3301 2 80.9351 2 84.5245V103.113C2 106.702 4.93676 109.307 8.19982 109.307H121.684C125.156 109.323 128.597 108.65 131.807 107.329C135.018 106.007 137.936 104.063 140.391 101.608C142.847 99.1537 144.792 96.2371 146.115 93.0267C147.438 89.8164 148.112 86.376 148.098 82.9039V49.9632C148.098 46.7001 145.493 44.0897 141.904 44.0897ZM494.429 9.19668C475.846 9.19668 460.515 24.5222 460.515 42.779C460.515 61.6994 475.846 77.0249 494.429 77.0249C513.012 77.0249 528.022 61.6994 528.022 42.779C528.022 24.5222 513.012 9.19668 494.429 9.19668Z" class="svg-elem-4"></path>
</mask>
<path fill-rule="evenodd" clip-rule="evenodd" d="M196.038 109.307H291.586C295.17 109.307 297.786 106.702 297.786 103.113V84.5245C297.786 80.9351 295.175 78.3301 291.586 78.3301H216.911C213.648 78.3301 211.037 76.046 211.037 72.7829C211.037 69.8516 213.648 67.2357 216.911 67.2357H291.586C294.849 67.2357 297.786 64.6252 297.786 61.3621V49.9523C297.786 46.6892 294.849 44.0788 291.586 44.0788H216.911C213.648 44.0788 211.037 41.4738 211.037 38.5316C211.037 35.2685 213.648 32.9844 216.911 32.9844H291.586C295.17 32.9844 297.786 30.3794 297.786 26.79V8.54402C297.786 4.95465 295.175 2.34964 291.586 2.34964H196.038C181.365 2.34964 169.624 14.0912 169.624 28.1115V82.8984C169.609 86.3709 170.283 89.812 171.605 93.0229C172.927 96.2339 174.873 99.1512 177.328 101.606C179.784 104.062 182.702 106.006 185.913 107.328C189.124 108.65 192.566 109.323 196.038 109.307ZM806.835 2.02335H722.381C707.703 2.02335 695.967 13.7649 695.967 27.7852V82.5721C695.952 86.0449 696.626 89.4862 697.948 92.6975C699.27 95.9087 701.216 98.8263 703.671 101.282C706.127 103.738 709.044 105.683 712.256 107.005C715.467 108.328 718.908 109.001 722.381 108.987H806.835C810.307 109.001 813.749 108.328 816.96 107.005C820.171 105.683 823.089 103.738 825.545 101.282C828 98.8263 829.945 95.9087 831.268 92.6975C832.59 89.4862 833.264 86.0449 833.249 82.5721V27.7852C833.255 13.7649 821.513 2.02335 806.835 2.02335ZM783.689 72.7883C783.689 75.7197 781.404 78.0038 778.462 78.0038H750.748C750.06 78.0133 749.377 77.8849 748.739 77.6263C748.102 77.3677 747.522 76.9841 747.035 76.498C746.548 76.012 746.163 75.4333 745.903 74.7962C745.643 74.1591 745.514 73.4764 745.522 72.7883V37.8953C745.522 34.9531 747.806 32.6798 750.748 32.6798H778.462C781.404 32.6798 783.689 34.9531 783.689 37.8953V72.7883Z" fill="#800080" class="svg-elem-5"></path>
<path fill-rule="evenodd" clip-rule="evenodd" d="M962.064 2.02336H877.279C862.927 2.02336 851.191 13.7649 851.191 27.7852V82.5721C851.191 97.2395 862.927 108.987 877.279 108.987H962.064C976.416 108.987 988.152 97.2395 988.152 82.5721V27.7852C988.152 13.7649 976.416 2.02336 962.064 2.02336ZM938.592 72.7884C938.592 75.7197 936.308 78.0038 933.376 78.0038H905.983C905.295 78.0133 904.612 77.8849 903.974 77.6263C903.337 77.3677 902.757 76.9841 902.27 76.498C901.783 76.012 901.398 75.4334 901.138 74.7962C900.878 74.1591 900.748 73.4764 900.756 72.7884V37.8953C900.756 34.9531 903.041 32.6799 905.983 32.6799H933.376C936.308 32.6799 938.592 34.9531 938.592 37.8953V72.7884Z" fill="#800080" class="svg-elem-6"></path>
<path fill-rule="evenodd" clip-rule="evenodd" d="M649.332 2.02338H606.281C602.371 2.02338 597.476 3.98119 595.192 6.91251L544.653 63.3363C541.711 66.5885 542.369 71.8149 547.258 71.8149H587.046C589.977 71.4831 593.24 70.8359 595.192 68.2255L623.891 35.9429C627.48 31.7064 632.37 34.306 632.37 37.2373V72.7884C632.37 75.7197 630.085 78.0038 627.154 78.0038H537.8C534.537 78.0038 530.622 79.309 528.996 80.9351L510.733 102.134C508.128 104.418 509.107 108.987 512.691 108.987H649.332C663.673 108.987 675.42 97.2396 675.42 82.5721V27.7853C675.42 13.765 663.673 2.02338 649.332 2.02338ZM476.493 100.829L393.986 7.23884C392.029 4.30208 387.139 2.34967 382.897 2.34967H339.847C325.5 2.34967 313.759 14.0913 313.759 28.1116V82.8984C313.759 97.5658 325.5 109.302 339.847 109.302H413.548C417.459 109.302 418.438 104.745 415.827 102.46L397.239 81.2614C395.607 79.6353 392.023 78.3301 388.434 78.3301H362.019C361.332 78.3389 360.65 78.21 360.013 77.951C359.376 77.692 358.798 77.3081 358.312 76.8221C357.826 76.336 357.442 75.7576 357.183 75.1208C356.924 74.4841 356.795 73.802 356.804 73.1147V37.5636C356.804 34.6322 361.693 32.0164 365.282 36.2583L425.937 105.724C428.221 108.008 431.153 108.987 434.089 109.302H473.872C478.772 109.307 479.43 104.092 476.493 100.829ZM141.904 44.0897H67.2286C63.9656 44.0897 61.6814 41.4847 61.6814 38.5425C61.6814 35.2794 63.9656 32.9953 67.2286 32.9953L141.904 32.6744C145.167 32.6744 148.098 30.064 148.098 26.8009V8.21776C148.098 4.9547 145.161 2.01794 141.904 2.01794L45.377 2.34424C30.6986 2.34424 18.9625 14.0858 18.9625 28.1061V61.3622C18.9625 64.6252 21.5675 67.2357 25.1623 67.2357H92.9905C95.9273 67.2357 98.5377 69.8462 98.5377 72.7829C98.5377 75.7197 95.9273 78.3301 92.9905 78.3301H8.19982C4.93676 78.3301 2 80.9351 2 84.5245V103.113C2 106.702 4.93676 109.307 8.19982 109.307H121.684C125.156 109.323 128.597 108.65 131.807 107.329C135.018 106.007 137.936 104.063 140.391 101.608C142.847 99.1537 144.792 96.2371 146.115 93.0267C147.438 89.8164 148.112 86.376 148.098 82.9039V49.9632C148.098 46.7001 145.493 44.0897 141.904 44.0897ZM494.429 9.19668C475.846 9.19668 460.515 24.5222 460.515 42.779C460.515 61.6994 475.846 77.0249 494.429 77.0249C513.012 77.0249 528.022 61.6994 528.022 42.779C528.022 24.5222 513.012 9.19668 494.429 9.19668Z" fill="#800080" class="svg-elem-7"></path>
<path fill-rule="evenodd" clip-rule="evenodd" d="M196.038 109.307H291.586C295.17 109.307 297.786 106.702 297.786 103.113V84.5245C297.786 80.9351 295.175 78.3301 291.586 78.3301H216.911C213.648 78.3301 211.037 76.046 211.037 72.7829C211.037 69.8516 213.648 67.2357 216.911 67.2357H291.586C294.849 67.2357 297.786 64.6252 297.786 61.3621V49.9523C297.786 46.6892 294.849 44.0788 291.586 44.0788H216.911C213.648 44.0788 211.037 41.4738 211.037 38.5316C211.037 35.2685 213.648 32.9844 216.911 32.9844H291.586C295.17 32.9844 297.786 30.3794 297.786 26.79V8.54402C297.786 4.95465 295.175 2.34964 291.586 2.34964H196.038C181.365 2.34964 169.624 14.0912 169.624 28.1115V82.8984C169.609 86.3709 170.283 89.812 171.605 93.0229C172.927 96.2339 174.873 99.1512 177.328 101.606C179.784 104.062 182.702 106.006 185.913 107.328C189.124 108.65 192.566 109.323 196.038 109.307ZM806.835 2.02335H722.381C707.703 2.02335 695.967 13.7649 695.967 27.7852V82.5721C695.952 86.0449 696.626 89.4862 697.948 92.6975C699.27 95.9087 701.216 98.8263 703.671 101.282C706.127 103.738 709.044 105.683 712.256 107.005C715.467 108.328 718.908 109.001 722.381 108.987H806.835C810.307 109.001 813.749 108.328 816.96 107.005C820.171 105.683 823.089 103.738 825.545 101.282C828 98.8263 829.945 95.9087 831.268 92.6975C832.59 89.4862 833.264 86.0449 833.249 82.5721V27.7852C833.255 13.7649 821.513 2.02335 806.835 2.02335ZM783.689 72.7883C783.689 75.7197 781.404 78.0038 778.462 78.0038H750.748C750.06 78.0133 749.377 77.8849 748.739 77.6263C748.102 77.3677 747.522 76.9841 747.035 76.498C746.548 76.012 746.163 75.4333 745.903 74.7962C745.643 74.1591 745.514 73.4764 745.522 72.7883V37.8953C745.522 34.9531 747.806 32.6798 750.748 32.6798H778.462C781.404 32.6798 783.689 34.9531 783.689 37.8953V72.7883Z" stroke="#800080" stroke-width="4" mask="url(#path-1-outside-1_18_28)" class="svg-elem-8"></path>
<path fill-rule="evenodd" clip-rule="evenodd" d="M962.064 2.02336H877.279C862.927 2.02336 851.191 13.7649 851.191 27.7852V82.5721C851.191 97.2395 862.927 108.987 877.279 108.987H962.064C976.416 108.987 988.152 97.2395 988.152 82.5721V27.7852C988.152 13.7649 976.416 2.02336 962.064 2.02336ZM938.592 72.7884C938.592 75.7197 936.308 78.0038 933.376 78.0038H905.983C905.295 78.0133 904.612 77.8849 903.974 77.6263C903.337 77.3677 902.757 76.9841 902.27 76.498C901.783 76.012 901.398 75.4334 901.138 74.7962C900.878 74.1591 900.748 73.4764 900.756 72.7884V37.8953C900.756 34.9531 903.041 32.6799 905.983 32.6799H933.376C936.308 32.6799 938.592 34.9531 938.592 37.8953V72.7884Z" stroke="#800080" stroke-width="4" mask="url(#path-1-outside-1_18_28)" class="svg-elem-9"></path>
<path fill-rule="evenodd" clip-rule="evenodd" d="M649.332 2.02338H606.281C602.371 2.02338 597.476 3.98119 595.192 6.91251L544.653 63.3363C541.711 66.5885 542.369 71.8149 547.258 71.8149H587.046C589.977 71.4831 593.24 70.8359 595.192 68.2255L623.891 35.9429C627.48 31.7064 632.37 34.306 632.37 37.2373V72.7884C632.37 75.7197 630.085 78.0038 627.154 78.0038H537.8C534.537 78.0038 530.622 79.309 528.996 80.9351L510.733 102.134C508.128 104.418 509.107 108.987 512.691 108.987H649.332C663.673 108.987 675.42 97.2396 675.42 82.5721V27.7853C675.42 13.765 663.673 2.02338 649.332 2.02338ZM476.493 100.829L393.986 7.23884C392.029 4.30208 387.139 2.34967 382.897 2.34967H339.847C325.5 2.34967 313.759 14.0913 313.759 28.1116V82.8984C313.759 97.5658 325.5 109.302 339.847 109.302H413.548C417.459 109.302 418.438 104.745 415.827 102.46L397.239 81.2614C395.607 79.6353 392.023 78.3301 388.434 78.3301H362.019C361.332 78.3389 360.65 78.21 360.013 77.951C359.376 77.692 358.798 77.3081 358.312 76.8221C357.826 76.336 357.442 75.7576 357.183 75.1208C356.924 74.4841 356.795 73.802 356.804 73.1147V37.5636C356.804 34.6322 361.693 32.0164 365.282 36.2583L425.937 105.724C428.221 108.008 431.153 108.987 434.089 109.302H473.872C478.772 109.307 479.43 104.092 476.493 100.829ZM141.904 44.0897H67.2286C63.9656 44.0897 61.6814 41.4847 61.6814 38.5425C61.6814 35.2794 63.9656 32.9953 67.2286 32.9953L141.904 32.6744C145.167 32.6744 148.098 30.064 148.098 26.8009V8.21776C148.098 4.9547 145.161 2.01794 141.904 2.01794L45.377 2.34424C30.6986 2.34424 18.9625 14.0858 18.9625 28.1061V61.3622C18.9625 64.6252 21.5675 67.2357 25.1623 67.2357H92.9905C95.9273 67.2357 98.5377 69.8462 98.5377 72.7829C98.5377 75.7197 95.9273 78.3301 92.9905 78.3301H8.19982C4.93676 78.3301 2 80.9351 2 84.5245V103.113C2 106.702 4.93676 109.307 8.19982 109.307H121.684C125.156 109.323 128.597 108.65 131.807 107.329C135.018 106.007 137.936 104.063 140.391 101.608C142.847 99.1537 144.792 96.2371 146.115 93.0267C147.438 89.8164 148.112 86.376 148.098 82.9039V49.9632C148.098 46.7001 145.493 44.0897 141.904 44.0897ZM494.429 9.19668C475.846 9.19668 460.515 24.5222 460.515 42.779C460.515 61.6994 475.846 77.0249 494.429 77.0249C513.012 77.0249 528.022 61.6994 528.022 42.779C528.022 24.5222 513.012 9.19668 494.429 9.19668Z" stroke="#800080" stroke-width="4" mask="url(#path-1-outside-1_18_28)" class="svg-elem-10"></path>
</svg>
