 <svg width="305" height="117" viewBox="0 0 305 107" fill="none" xmlns="http://www.w3.org/2000/svg">
<style>
        #jet {
  transform-origin: bottom center;
  animation: swing 1s alternate infinite;
}
@keyframes swing {
  0% {
   transform: rotate(5deg);
  }
  100% {
    transform: rotate(-5deg);
  }
}
    </style>
 <path
          id="jet"
          d="M7.02782 70.6304C12.0472 88.1215 22.0793 93.7523 22.0793 93.7523C22.0793 93.7523 158.605 110.792 219.724 106.221C280.839 101.66 301.518 70.6271 301.518 70.6271L7.02782 70.6304ZM211.075 95.6482C210.002 95.782 208.428 96.0495 206.413 96.23C204.398 96.4307 201.949 96.6814 199.142 96.969C196.338 97.3034 193.156 97.4773 189.681 97.6779C186.209 97.8718 182.443 98.0858 178.462 98.3065C174.489 98.3767 170.295 98.3867 165.964 98.3934C163.799 98.3968 161.59 98.4001 159.357 98.4035C158.231 98.4035 157.098 98.4035 155.962 98.4035C154.833 98.3466 153.7 98.2998 152.56 98.243C148.019 98.029 143.39 97.8116 138.769 97.5976C134.147 97.3502 129.528 97.1094 124.984 96.862C120.435 96.6012 115.961 96.3437 111.63 96.0929C107.302 95.8221 103.118 95.5546 99.1514 95.3072C95.188 94.9895 91.4418 94.6953 87.9831 94.4211C81.0689 93.866 75.3143 93.2976 71.2807 92.9498C67.2505 92.5553 64.9447 92.3279 64.9447 92.3279C64.9447 92.3279 67.2572 92.3848 71.3041 92.4784C75.3511 92.6222 81.1324 92.7526 88.0666 93.0301C91.5321 93.1772 95.2849 93.3344 99.2617 93.5016C103.232 93.6487 107.412 93.7992 111.747 93.963C116.074 94.1436 120.552 94.3308 125.094 94.5214C129.639 94.7321 134.257 94.9527 138.872 95.1667C143.487 95.4142 148.102 95.6583 152.644 95.899C153.78 95.9625 154.916 96.0194 156.039 96.0796C157.158 96.103 158.271 96.123 159.374 96.1431C161.606 96.1799 163.809 96.2167 165.977 96.2568C170.308 96.3337 174.499 96.4173 178.473 96.4909C182.433 96.4173 186.179 96.3471 189.634 96.2802C193.096 96.21 196.268 96.2234 199.081 96.0662C201.899 95.9492 204.348 95.8455 206.373 95.7552C208.392 95.685 209.979 95.5847 211.062 95.5212C212.141 95.461 212.723 95.4309 212.723 95.4309C212.723 95.4309 212.151 95.5045 211.075 95.6482Z"
          fill="black"
        />
        <path
          id="jet"
          d="M182.977 7.95544C182.336 7.95544 181.814 7.43381 181.814 6.78847C181.814 6.14981 182.332 5.62151 182.977 5.62151H193.517C194.159 5.62151 194.687 6.14647 194.687 6.78847C194.687 7.43381 194.162 7.95544 193.517 7.95544H182.977Z"
          fill="black"
        />
        <path
          id="jet"
          d="M113.033 23.768C114.985 23.5372 116.719 22.8986 118.246 22.3302C119.577 21.8386 120.726 21.414 121.608 21.414C122.196 21.414 122.694 21.5812 123.219 22.4037C125.595 26.122 131.346 31.8966 131.594 32.144L131.861 32.4115L132.229 32.4817C135.34 33.0569 138.384 33.3511 141.278 33.3511C148.53 33.3511 153.787 31.5288 157.626 30.198C158.355 29.9472 159.037 29.7098 159.682 29.4991C161.71 28.8471 164.377 28.5027 167.398 28.5027C169.49 28.5027 171.124 28.6665 171.585 28.7167C177.811 31.1342 194.042 37.912 196.682 41.1721C197.544 42.2421 197.728 42.9242 197.614 43.1884C197.464 43.5462 196.622 43.8136 196.091 43.8671L128.566 50.3072L120.82 44.1781C120.272 43.5896 112.014 34.4913 110.63 24.0288C111.556 23.9351 112.365 23.8482 113.033 23.768Z"
          fill="#666666"
        />
        <path
          id="jet"
          d="M55.7915 28.7234C55.7146 28.399 55.6945 27.951 56.2626 27.3458C59.9687 23.3968 65.1519 21.755 66.4485 21.3939C73.9876 23.6844 83.3714 24.8446 94.3626 24.8446C99.7496 24.8446 104.565 24.5638 108.214 24.2528C109.277 32.5988 114.23 39.9182 117.084 43.5294C89.136 40.3663 68.2297 36.1632 66.6624 35.8422C62.7424 34.4044 56.3896 31.2345 55.7915 28.7234Z"
          fill="#666666"
        />
        <path
          id="jet"
          d="M289.962 50.9191L289.507 50.7385L289.304 50.2871C289.133 49.8993 271.381 11.4028 227.32 11.4028C226.989 11.4028 226.661 11.4697 226.501 11.5466C226.548 11.7405 226.755 12.2822 227.711 13.3154C229.057 14.7733 228.997 16.0239 228.71 16.8163C227.684 19.6719 221.933 20.5747 220.797 20.7218L220.075 20.8188L219.647 20.2336C219.507 20.0363 205.264 0.615938 194.724 0.0475033C191.108 -0.153121 188.725 0.281561 187.816 1.3549C187.445 1.79293 187.265 2.40149 187.271 3.19061H193.521C195.506 3.19061 197.12 4.80563 197.12 6.78847C197.12 8.77465 195.506 10.3897 193.521 10.3897H189.724C190.921 12.7236 192.578 15.5123 194.747 18.8527L195.76 20.4175L193.922 20.7185C193.801 20.7352 182.864 22.5575 174.586 27.2856C180.581 29.683 195.579 35.9392 198.573 39.6407C199.964 41.3627 200.395 42.8741 199.857 44.1447C199.061 46.0038 196.588 46.2613 196.308 46.2813L127.831 52.8217L119.51 46.2412C91.7393 43.2151 70.3083 39.0421 66.6423 38.3132C64.6105 39.9851 55.5007 47.8027 52.2625 56.7372L51.9885 57.4996L51.1831 57.5397C50.8924 57.5564 22.1929 59.1045 0.48122 65.792L0 68.1928H305C304.392 64.7956 301.695 55.617 289.962 50.9191ZM221.625 49.8157C220.813 50.2269 219.63 50.9124 218.066 51.6146C217.291 51.9791 216.425 52.3803 215.486 52.8217C214.531 53.2296 213.495 53.6676 212.388 54.1358C211.276 54.5838 210.116 55.1355 208.84 55.5736C207.576 56.0617 206.176 56.3259 204.769 56.7639C203.352 57.202 201.852 57.533 200.295 57.8874C198.744 58.2419 197.14 58.613 195.489 58.9875C193.815 59.2985 192.08 59.556 190.316 59.8569C188.555 60.1177 186.74 60.5156 184.922 60.6226C183.098 60.7831 181.24 60.947 179.365 61.1141L177.955 61.2445C177.697 61.2579 177.53 61.288 177.193 61.298L176.477 61.3248C175.518 61.3482 174.559 61.3716 173.593 61.395C171.665 61.4485 169.717 61.4987 167.759 61.5522C165.807 61.6057 163.855 61.5622 161.897 61.5722C157.981 61.5655 154.061 61.5823 150.214 61.482C146.368 61.3984 142.571 61.3716 138.912 61.2479C131.58 61.0439 124.743 60.8065 118.881 60.5691C117.418 60.4889 116.011 60.539 114.677 60.3919C113.347 60.2381 112.088 60.0943 110.898 59.9505C108.522 59.6931 106.457 59.4222 104.756 59.1982C101.354 58.7568 99.4087 58.4592 99.4087 58.4592C99.4087 58.4592 101.374 58.3857 104.799 58.2519C106.51 58.2017 108.592 58.1416 110.981 58.0647C112.168 58.0312 113.441 57.9978 114.781 57.9643C116.111 57.9276 117.508 58.1115 118.978 58.1382C124.83 58.3689 131.657 58.613 138.972 58.807C142.632 58.9374 146.411 58.9608 150.251 59.0444C154.091 59.1413 157.987 59.1246 161.887 59.1347C163.835 59.1213 165.79 59.1714 167.725 59.1146C169.66 59.0611 171.588 59.0076 173.503 58.9608C174.462 58.934 175.408 58.9073 176.36 58.8872L177.069 58.8638C177.213 58.8638 177.517 58.827 177.731 58.8103L179.141 58.6866C181.022 58.5161 182.874 58.3522 184.702 58.1917C186.543 58.0881 188.257 57.6968 189.985 57.4394C191.693 57.1485 193.374 56.901 194.998 56.6001C196.619 56.2256 198.199 55.8645 199.723 55.5201C201.254 55.1723 202.731 54.8446 204.118 54.4133C205.524 54.0522 206.824 53.5406 208.131 53.2898C209.441 53.0457 210.647 52.6746 211.8 52.4004C212.953 52.1028 214.026 51.8252 215.022 51.5711C216.008 51.2769 216.91 51.006 217.732 50.7619C221.007 49.7889 222.855 49.1235 222.855 49.1235C222.855 49.1235 222.434 49.3709 221.625 49.8157ZM254.839 37.4673C271.107 41.8776 282.663 50.3473 282.663 50.3473C261.68 44.9706 254.839 37.4673 254.839 37.4673Z"
          fill="#7F00FF"
        />
</svg>